<svg xmlns="http://www.w3.org/2000/svg" viewBox="0 0 378.4 142.04"><defs><style>.cls-1{fill:#f3f3f3;}.cls-2{fill:#455edc;}.cls-3{fill:#c1272d;}</style></defs><g id="Layer_2" data-name="Layer 2"><g id="Layer_2-2" data-name="Layer 2"><path class="cls-1" d="M6.11,96.66V90.12H11.9c1.07,0,3.21-.64,3.21-4.07V50.14a2.51,2.51,0,0,0-2.57-2.78H6V41.25l20.58-1.82V86.05c0,3,1.18,4.07,3.32,4.07h5.9v6.54Z"/><path class="cls-2" d="M18.84,0C16.67,9.48,10.72,14.33.37,14.33A17.76,17.76,0,0,1,1.82,10.1c6.06-1.18,11.09-5,12.93-9.81A17.94,17.94,0,0,1,18,0Z"/><path class="cls-3" d="M28.45,3.37C25.35,18,16,23.93.49,22.13A17.27,17.27,0,0,1,0,18c0-.16,0-.32,0-.49C11.76,18.61,19.42,13,23.08.74A17.67,17.67,0,0,1,28.45,3.37Z"/><path class="cls-1" d="M35.8,15.68C32.38,27.28,24.23,34.3,9.5,33.84a18,18,0,0,1-6.31-5.65c16.67,1,25.78-6.76,28.72-21.56A17.79,17.79,0,0,1,35.8,15.68Z"/><path class="cls-1" d="M59.87,90.9a2.94,2.94,0,0,0,2.87-3V48.15a3,3,0,0,0-2.87-3H53.65V39.63H86.49c10.32,0,18.35,5.32,18.35,16,0,8.68-6,15.89-15.07,15.89H72.24V88c0,2.3,1.15,3,3.2,3h5.73v5.49H53.65V90.9ZM72.24,66.16H84.61A10.23,10.23,0,0,0,94.93,55.6c0-5.65-4.1-10.49-9.91-10.49H72.24Z"/><path class="cls-1" d="M127.61,52.73c12.86,0,20.88,9.75,20.88,22.44,0,13.19-8.35,22.37-21.7,22.37-13.68,0-20.89-9.75-20.89-22.77C105.9,62,114.67,52.73,127.61,52.73ZM127,92.38c9.75,0,11.8-9.67,11.8-17.78,0-7.53-2.38-16.54-11.47-16.54-9.58,0-11.63,9.42-11.63,17.11S117.37,92.38,127,92.38Z"/><path class="cls-1" d="M153.73,96.39v-5h4.43c.81,0,2.45-.49,2.45-3.11V60.84a1.92,1.92,0,0,0-2-2.13h-5V54l15.73-1.39V88.28c0,2.29.9,3.11,2.54,3.11h4.5v5Zm10.65-60.53A5.76,5.76,0,0,1,170,41.51a5.69,5.69,0,0,1-5.82,5.65,5.34,5.34,0,0,1-5.4-5.4A5.76,5.76,0,0,1,164.38,35.86Z"/><path class="cls-1" d="M180.43,96.39v-5h4.51c.82,0,2.37-.49,2.37-3.11V61.09a1.88,1.88,0,0,0-2-2.13h-5.41V54.29l16.22-1.39v4.91l-.9,4.26c3.36-6.14,8.35-9.42,15-9.42s13.51,3.93,13.51,11.14V89A2.46,2.46,0,0,0,226,91.39h4.75v5H208.85v-5h3.94a2.26,2.26,0,0,0,2.29-2.13V65.76c0-4.43-3.77-6.56-7.7-6.56-5.49,0-11.22,4.75-11.22,10.57V88.28c0,2.29.9,3.11,2.46,3.11h4.5v5Z"/><path class="cls-1" d="M258.9,54.21v4.66h-9.59V88c0,3,1.15,3.77,4.34,3.77A28.45,28.45,0,0,0,260,90.9v5a37.27,37.27,0,0,1-10.57,1.55c-4,0-6.63-1-7.78-2.86-.82-1.31-1.14-3-1.14-7V58.87h-7.21V54.21c8.44-.09,10-5.41,10-16.71h6.06V54.21Z"/><path class="cls-1" d="M180.24,141.28v-.71l1.54-.06c3.3-.12,2.88-1.83.05-9l-2.59-6.61h-13.8l-1.29,3.48a23.16,23.16,0,0,0-1.54,8.14c0,2.24.53,3.89,3,4l1.24.06v.71H154.48v-.71l.64-.06c2.6-.24,3.9-1.24,8.08-12.09l10.56-27.53h.59l12.38,30.18c3.42,8.44,4.18,9.14,6.6,9.44l.47.06v.71Zm-14.5-17.1H179L172.28,107Z"/><path class="cls-1" d="M212.79,141.28c-7.49,0-14.63-3.78-14.63-13.45,0-7.37,5.25-13.62,14.39-13.62a20.37,20.37,0,0,1,5.13.71v-4.78c0-7.72-.47-7.72-2.71-7.84l-1.18-.06v-.7h8.31v31.13c0,7.72.47,7.72,2.71,7.84l1.18.06v.71Zm4.89-25.53a19.8,19.8,0,0,0-5.31-.83c-6.19,0-9,5-9,12.91,0,6.31,2.71,12.68,9.14,12.68h5.13Z"/><path class="cls-1" d="M241.5,141.92l-8.32-20c-2.06-5-2.77-6.08-4.54-6.25l-.41-.06v-.71H239v.71l-1.06.06c-1.59.11-2.06,1.41-.18,6.07l5.9,14.15,4.6-11.91c1.18-3,1.24-8.25-.83-8.31l-1-.06v-.71h8.43v.71l-.47.06c-1.59.17-2.54,1.41-5.25,8.31l-7.07,17.92Z"/><path class="cls-1" d="M257.71,141.28v-.71l1.18-.06c2.24-.12,2.71-.12,2.71-7.84v-9.14c0-7.73-.47-7.73-2.71-7.84l-1.18-.06v-.71H266v17.75c0,7.72.48,7.72,2.66,7.84l1.18.06v.71Zm6-34.14a2.65,2.65,0,0,1-2.53-2.89,2.56,2.56,0,0,1,2.53-2.83,2.87,2.87,0,0,1,0,5.72Z"/><path class="cls-1" d="M286.19,142a10.36,10.36,0,0,1-5.54-1.53,2.6,2.6,0,0,0-1.3-.53c-.77,0-1.42.71-2.24,2.06h-.59v-8.78h.71l.41,1.35c.94,2.95,3.3,6.67,8.49,6.67,3.48,0,6.07-1.54,6.07-5.08,0-7.25-14.44-5-14.44-15,0-4.13,3.36-7,7.72-7a9.09,9.09,0,0,1,4.66,1.3,2.54,2.54,0,0,0,1.12.41c.59,0,1.18-.53,1.89-1.71h.53v7.55H293l-.41-1.36a7.29,7.29,0,0,0-7.08-5.42c-3.24,0-5,1.53-5,4.18,0,7.43,14.62,5.19,14.62,15.57C295.21,139,291.44,142,286.19,142Z"/><path class="cls-1" d="M315.2,142c-8.32,0-13.09-6.78-13.09-14s4.77-13.86,13.09-13.86,13.14,6.72,13.14,13.92S323.51,142,315.2,142Zm0-27.06c-6.37,0-7.85,6.07-7.85,13.15s1.48,13.15,7.85,13.15,7.78-6,7.78-13.09S321.5,115,315.2,115Z"/><path class="cls-1" d="M334.3,141.28v-.71l1.18-.06c2.24-.12,2.71-.12,2.71-7.84v-9.14c0-7.73-.47-7.73-2.71-7.84l-1.18-.06v-.71h8.19V119c1.65-3.24,3.89-4.78,6.61-4.78s4.89,1.71,4.89,4.37a2.67,2.67,0,0,1-2.71,3,2.58,2.58,0,0,1-2.66-2.53c0-2,1.6-2.18,1.6-3.25,0-.41-.36-.82-1.48-.82-2.3,0-4.42,1.47-6.13,5.07v12.62c0,7.72.47,7.72,3.24,7.84l1.77.06v.71Z"/><path class="cls-1" d="M369.38,142a10.42,10.42,0,0,1-5.55-1.53,2.57,2.57,0,0,0-1.29-.53c-.77,0-1.42.71-2.24,2.06h-.59v-8.78h.7l.42,1.35c.94,2.95,3.3,6.67,8.49,6.67,3.48,0,6.07-1.54,6.07-5.08,0-7.25-14.44-5-14.44-15,0-4.13,3.36-7,7.72-7a9.09,9.09,0,0,1,4.66,1.3,2.49,2.49,0,0,0,1.12.41c.59,0,1.18-.53,1.88-1.71h.53v7.55h-.64l-.42-1.36a7.27,7.27,0,0,0-7.07-5.42c-3.24,0-5,1.53-5,4.18,0,7.43,14.62,5.19,14.62,15.57C378.4,139,374.62,142,369.38,142Z"/></g></g></svg>